# xmcd CD database file
#
# Track frame offsets:
#	150
#	16789
#	34384
#	48816
#	67279
#	84111
#	95049
#	110542
#	128737
#	149475
#	168830
#	188083
#	205418
#
# Disc length: 2970 seconds
#
# Revision: 0
# Processed by: cddbd v1.5.1PL2 Copyright (c) Steve Scherf et al.
# Submitted via: Feurio! 1.68 - http://www.feurio.com
#
DISCID=b20b980d
DTITLE=The Slamhound Hunters - Private Jungle
DYEAR=1900
DGENRE=Countryrock
TTITLE0=The Fugitive
TTITLE1=Test Of Time
TTITLE2=Cadillac Walk
TTITLE3=Good MAn
TTITLE4=Hard Work
TTITLE5=By Night I Dream
TTITLE6=Lonely Woman
TTITLE7=Ain't That Crazy
TTITLE8=Love The Pity
TTITLE9=Swamp Crab
TTITLE10=Rockin' My Boat
TTITLE11=The Snake Sheds Its Skin
TTITLE12=Joe The Ripper
EXTD=
EXTT0=
EXTT1=
EXTT2=
EXTT3=
EXTT4=
EXTT5=
EXTT6=
EXTT7=
EXTT8=
EXTT9=
EXTT10=
EXTT11=
EXTT12=
PLAYORDER=
